<?xml version="1.0" encoding="UTF-8"?>
<svg fill="" version="1.1" xmlns="http://www.w3.org/2000/svg" width="196" height="136">
<path d="M0 0 C64.68 0 129.36 0 196 0 C196 44.88 196 89.76 196 136 C131.32 136 66.64 136 0 136 C0 91.12 0 46.24 0 0 Z " fill="" transform="translate(0,0)"/>
<path d="M0 0 C4.66672925 0.60999126 9.17389377 1.47119356 13.75 2.5625 C20.40741222 4.00976353 27.6354826 5.38296463 34.29296875 3.2734375 C36.96434783 2.48857214 38.29926076 2.22639842 41 3 C44.68346915 6.69996229 47.59720399 10.83941336 50.61035156 15.08984375 C56.34575154 22.97349966 63.17352926 29.48013156 70.9375 35.3125 C71.8960791 36.04279419 71.8960791 36.04279419 72.87402344 36.7878418 C76.07895784 39.25309224 76.07895784 39.25309224 79.92016602 39.89355469 C82.79644131 38.6578266 84.40875959 36.85690391 86.5625 34.58984375 C87.44292969 33.68169922 88.32335937 32.77355469 89.23046875 31.83789062 C91.05069986 29.93643932 92.86339469 28.0280996 94.67578125 26.11914062 C103.2518468 17.28864766 113.23208422 7.81987898 126.25 7.625 C133.46419694 7.77242909 139.32683731 9.83871953 144.9375 14.375 C149.06253837 19.62504883 150.57684245 23.71512744 150.34765625 30.3515625 C148.99792156 40.63381103 142.78584004 49.32932906 134.8203125 55.69140625 C123.83567237 63.5880896 109.3946528 65.31420493 96.22851562 63.43066406 C88.9663224 62.02723408 81.95427129 59.47178991 75 57 C74.01 57.99 73.02 58.98 72 60 C72.65895264 60.42708252 73.31790527 60.85416504 73.99682617 61.29418945 C86.25919211 69.27174019 98.07670445 77.2437232 109 87 C110.88810251 88.55112509 112.78379157 90.09306842 114.6875 91.625 C119.1275756 95.23901502 123.4035452 98.99778244 127.6328125 102.85546875 C130.54169102 105.49073989 133.51501747 108.04598066 136.50390625 110.58984375 C138 112 138 112 139 114 C138.39115967 113.87882812 137.78231934 113.75765625 137.1550293 113.6328125 C134.33450874 113.07783352 131.51113948 112.53887639 128.6875 112 C127.73037109 111.80921875 126.77324219 111.6184375 125.78710938 111.421875 C117.82998139 109.9215411 110.08854212 109.0818279 102.12109375 110.87109375 C100.57615234 110.93490234 100.57615234 110.93490234 99 111 C96.90610315 109.00966528 95.61928032 107.42684459 94.0625 105.0625 C85.05029818 92.56305175 73.99033143 81.36665414 61 73 C56.80179977 74.58797172 54.32218694 77.72041357 51.4375 81 C40.98654139 92.56026927 29.27520574 105.43038917 12.8125 106.5 C5.36042446 106.37783483 -0.63688525 102.90151076 -6.19140625 98.109375 C-10.17508208 93.46318721 -10.45116952 88.80315574 -10.30078125 82.8984375 C-9.17985095 72.09674554 -2.47966271 64.68231241 5.5234375 57.84375 C15.49827135 50.41769073 27.91622799 49.10744866 40 50 C47.52930353 51.11154589 54.44610428 52.71817066 61.1328125 56.42578125 C63.05534697 57.21271913 63.05534697 57.21271913 65.1796875 56.29296875 C67.31200579 55.04782903 67.31200579 55.04782903 68 52 C67.13117188 51.7421875 66.26234375 51.484375 65.3671875 51.21875 C61.94125685 49.97873798 59.1890832 48.45968465 56.125 46.5 C54.67480469 45.58734375 54.67480469 45.58734375 53.1953125 44.65625 C52.47085938 44.1096875 51.74640625 43.563125 51 43 C51 42.34 51 41.68 51 41 C50.33226562 40.79503906 49.66453125 40.59007812 48.9765625 40.37890625 C44.9087954 38.49449446 41.79647068 35.80383006 38.375 32.9375 C37.66641846 32.35186279 36.95783691 31.76622559 36.2277832 31.1628418 C34.80413594 29.98612576 33.38230703 28.80720594 31.96240234 27.62597656 C29.39141166 25.49574541 26.78806474 23.40646122 24.1875 21.3125 C19.49412623 17.47887338 15.04707226 13.41249338 10.59375 9.3046875 C7.64594273 6.68540092 4.58039453 4.33442739 1.36328125 2.05859375 C0.91339844 1.70925781 0.46351562 1.35992187 0 1 C0 0.67 0 0.34 0 0 Z " fill="#4B90D3" transform="translate(35,0)"/>
<path d="M0 0 C4.6188749 1.62598691 8.56594264 4.03156758 12.6875 6.625 C13.40010986 7.07302979 14.11271973 7.52105957 14.84692383 7.98266602 C20.5622174 11.62674083 25.84732484 15.59268036 31 20 C32.03593094 20.87562433 33.07242373 21.75058423 34.109375 22.625 C35.78017303 24.03542356 37.44934109 25.44758398 39.11401367 26.86523438 C42.53440898 29.77706364 45.99800396 32.62366912 49.5 35.4375 C55.9353759 40.66564881 61.96042902 46.32529976 68 52 C65.46170102 53.26914949 64.55068848 52.84652981 61.81640625 52.22265625 C60.9761792 52.03856201 60.13595215 51.85446777 59.27026367 51.66479492 C58.37670166 51.4660376 57.48313965 51.26728027 56.5625 51.0625 C48.08199906 49.27059026 40.06800703 47.70459013 31.515625 49.890625 C30.35546875 49.92671875 29.1953125 49.9628125 28 50 C25.90610315 48.00966528 24.61928032 46.42684459 23.0625 44.0625 C14.51609411 32.20908613 4.14389317 21.49355641 -8.05859375 13.3828125 C-10 12 -10 12 -11 10 C-10.45730469 9.52949219 -9.91460937 9.05898437 -9.35546875 8.57421875 C-8.64003906 7.95160156 -7.92460938 7.32898438 -7.1875 6.6875 C-6.47980469 6.07261719 -5.77210937 5.45773438 -5.04296875 4.82421875 C-3.29863261 3.26665665 -1.63221959 1.67341125 0 0 Z " fill="#4B99D9" transform="translate(106,61)"/>
<path d="M0 0 C3.61619597 2.41842642 6.41629661 4.92066567 7.9765625 9.05078125 C8.83873994 13.63563138 8.86298107 17.37207705 6.65234375 21.55859375 C2.53613892 27.16403223 -1.67038536 30.63898056 -8.3359375 32.80078125 C-20.86777265 33.96653336 -32.36622209 32.0179014 -43.0234375 25.05078125 C-41.40419455 21.03620849 -38.60133843 18.24420425 -35.5859375 15.23828125 C-35.05460205 14.70855713 -34.5232666 14.17883301 -33.97583008 13.63305664 C-29.13423712 8.93780906 -23.9553126 5.27606151 -18.0234375 2.05078125 C-17.38792969 1.69242188 -16.75242188 1.3340625 -16.09765625 0.96484375 C-11.05252687 -1.56351994 -5.20684804 -2.44259474 0 0 Z " fill="#" transform="translate(165.0234375,20.94921875)"/>
<path d="M0 0 C-8.49558589 10.56207975 -18.90210742 20.60070784 -32 25 C-34.75390625 25.265625 -34.75390625 25.265625 -37.5625 25.25 C-38.49191406 25.25515625 -39.42132813 25.2603125 -40.37890625 25.265625 C-43.82564005 24.91632858 -45.9220294 23.97301031 -48.484375 21.66015625 C-51.93099791 17.30932671 -53.00238162 13.40372582 -52.7421875 7.85546875 C-51.11946801 1.61226902 -46.31162438 -2.81869053 -41.04296875 -6.2890625 C-27.85367008 -12.23118864 -11.95036033 -5.95165584 0 0 Z " fill="#" transform="translate(89,68)"/>
<path d="M0 0 C3.465 1.98 3.465 1.98 7 4 C5.68 5.32 4.36 6.64 3 8 C0.37613513 4.93882432 0 4.26826873 0 0 Z " fill="#63B1E8" transform="translate(103,52)"/>
</svg>
