<?xml version="1.0" encoding="UTF-8"?>
<svg version="1.1" viewBox="0 0 1656 1008" width="27" height="24"  fill="none" xmlns="http://www.w3.org/2000/svg">
<path transform="translate(0)" d="m0 0h1656v1008h-1656z"/>
<path transform="translate(1177,352)" d="m0 0h2l1 32 1 201 15 14 38 38 7 8 17 17 8 7 7 8 6 5v2l3 1 5 6 8 7v2l3 1 6 7 6 5 6 7 8 7 5 5v2l4 2 14 14-1 1-34 1h-518l-17-1 2-4 15-14 74-74 8-7 71-71h2v-2l7-6 5-6 8-7 28-28 4-5 7-6 72-72h2v-2l8-7 41-41 8-7 30-30z" fill="#FEFEFE"/>
<path transform="translate(521,288)" d="m0 0h565l-2 4-92 92-8 7-45 45-8 7-35 35-9 10h-2l-2 4-5 4-24 24-5 6-8 7-5 6-8 7-52 52-8 7-27 27-8 7-30 30-6 5-9 11-4 1-1-231-39-39-6-5-5-6-45-45-2-1v-2l-4-2-10-10v-2h-2l-7-8-5-4-5-6-7-6-7-8-5-4v-2l-4-2-8-8-5-4v-2z" fill="#FEFEFE"/>
</svg>
