<?xml version="1.0" encoding="UTF-8"?>
<svg version="1.1" viewBox="0 0 1600 778" width="2932" height="1426" xmlns="http://www.w3.org/2000/svg">
<path transform="translate(0)" d="m0 0h1600v778h-1600z" fill="#111825"/>
<path transform="translate(0)" d="m0 0h1600v332h-505v-58h-594v58h-501z" fill="#52268F"/>
<path transform="translate(501,274)" d="m0 0h594v58h53v1h-53v59l-4 5h-586l-4-4v-60h-394v-1h394z" fill="#1F273A"/>
<path transform="translate(501,274)" d="m0 0h594v58h53v1h-53v2h-594v-2h-394v-1h394z" fill="#1F2739"/>
<path transform="translate(505,419)" d="m0 0h585l5 5v51l-4 5h-586l-4-4v-53z" fill="#1F2739"/>
<path transform="translate(505,116)" d="m0 0h586l3 3 1 2v51l-5 5h-584l-5-5v-52z" fill="#1F2739"/>
<path transform="translate(505,212)" d="m0 0h586l4 5v55h-594v-56z" fill="#1F2739"/>
<path transform="translate(652)" d="m0 0h27l3 3-2 4-2 1-8-1v10l-3 2-1 14 1 4-1 1-1 31h2l-1 3-2 28-1 1h-6l-1-1-1-24 2-4 5-2v-2l-6 1-1-15 1-15v-2l-1-12-2-1v-2l-4 1-5-2-4 4-1 17-3-1 2-27-1-3 2-3 9-3 4-2z" fill="#6238A3"/>
<path transform="translate(832,23)" d="m0 0 2 3-3 1-2 53-11 1-10-1-1-33 1-18 8-2 7-2z" fill="#6238A3"/>
<path transform="translate(725)" d="m0 0h26l-1 2-1 39-6 4-14 4-3 1-1-2v-36l1-3h2v-2l-3-3z" fill="#6238A3"/>
<path transform="translate(741,48)" d="m0 0h6v42l-3 2-19 2v-39l6-4z" fill="#6339A4"/>
<path transform="translate(714,177)" d="m0 0h23l-1 34h-20v-6h-3l-1-3v-18z" fill="#6339A4"/>
<path transform="translate(820,84)" d="m0 0 5 1 4 2v19l-1 9h-21v-26l8-3z" fill="#6339A4"/>
<path transform="translate(700)" d="m0 0h2v21l-1 3 3 1-2 3-1 30-5 5-7-1-1-3v-12l1-17h2l-2-5-1-4v-13l2-4v20l4-1 3-4h2v-15z" fill="#6339A4"/>
<path transform="translate(808)" d="m0 0h23v19l-1 2-9 2-13 2z" fill="#6339A4"/>
<path transform="translate(576,48)" d="m0 0h2l1 15v7l4 1v14l-2 5h-3l-1-5 1-18-7 2-5 1-4 2 1 4-1 15-1 3v18l-5 1v-16l1-4v-10l2-10-1-2 3-1v-5l3-6h5l2-6 2-4z" fill="#6238A3"/>
<path transform="translate(628,16)" d="m0 0h5l-1 4h-2v5l-7-2v6h6l1-3 1 13 2 1-6 1-4-1-4 3-1 13-1 18-3 7-4-1v-25l-1-11-3-1 1-8-2-4h5l1 22 3-1 2-8 1-13 1-9 2-1h9z" fill="#6339A4"/>
<path transform="translate(695,64)" d="m0 0h6l-1 33-1 2-3 1h-7l-1-1v-30l2-3z" fill="#6339A4"/>
<path transform="translate(745,95)" d="m0 0 4 1h-3l2 12-1 7h-23v-12l1-4 4-2 14-1z" fill="#6339A4"/>
<path transform="translate(652)" d="m0 0h5v3l2 2h-2v27h-1l-1-7-2-1v-2l-4 1-5-2-4 4-1 17-3-1 2-27-1-3 2-3 9-3 4-2z" fill="#6339A4"/>
<path transform="translate(805,177)" d="m0 0h16v1h-5l1 8-4 18 1 7h-9z" fill="#6238A3"/>
<path transform="translate(678,177)" d="m0 0h13l-1 18-2 5-3 1-5-5-2-4z" fill="#6339A4"/>
<path transform="translate(628,16)" d="m0 0h5l-1 4h-2v5l-7-2v6h6l1-3 1 13 2 1-6 1-4-1-4 3h-2v-12l1-9 2-1h9z" fill="#6238A3"/>
<path transform="translate(526,294)" d="m0 0h6l5 4 1 6-3 5-7 2-5-3-2-3v-6z" fill="#1E2738"/>
<path transform="translate(526,232)" d="m0 0h7l4 4 1 6-3 5-2 1h-7l-5-5v-6z" fill="#1E2738"/>
<path transform="translate(526,138)" d="m0 0h6l4 4 1 6-3 5-6 2-5-3-2-3v-6z" fill="#1E2738"/>
<path transform="translate(657)" d="m0 0h11l-2 4-1 1-2 21-2 3h-2l-1 3h-1l-1-24 1-4z" fill="#52268F"/>
<path transform="translate(525,229)" d="m0 0h8l6 4 2 5-1 7-4 5-2 1h-9l-6-5-1-9 3-5zm1 3-5 5v6l5 5h7l4-4 1-5-2-5-3-2z" fill="#542892"/>
<path transform="translate(597,68)" d="m0 0h1v22l-1 14-1 5-4-1v-37l2-1 1 6v-7z" fill="#6339A4"/>
<path transform="translate(526,291)" d="m0 0h7l7 6 1 7-3 6-4 3-6 1-6-3-4-5v-7l4-6zm0 3-5 5v6l4 5 5 1 6-3 2-4-1-6-5-4z" fill="#542891"/>
<path transform="translate(525,135)" d="m0 0h7l6 4 2 5-1 7-4 5-7 2-7-3-3-5v-8l5-6zm1 3-5 5v6l4 5 5 1 5-3 2-4-1-6-4-4z" fill="#532891"/>
<path transform="translate(948,360)" d="m0 0h5l3 3 1-3h3v13h-3l-1-2-3 3-6-1-2-2v-8z" fill="#1F2839"/>
<path transform="translate(918)" d="m0 0h1v12l-3 65h-2v-25l1-1v-36l1-9h2z" fill="#6339A4"/>
<path transform="translate(781)" d="m0 0h2l1 3v22l-2 36-1 11h-1v-38z" fill="#6339A4"/>
<path transform="translate(565,301)" d="m0 0 5 1h3l5-1 2 2v8h-7-3-6l-2-2 1-7z" fill="#34275C"/>
<path transform="translate(634,77)" d="m0 0h3l-1 25-5 1-1-1v-22z" fill="#6339A4"/>
<path transform="translate(615,81)" d="m0 0 2 1-1 18-2 7-3 1-2-3v-18l2-4z" fill="#6339A4"/>
<path transform="translate(694,103)" d="m0 0h5l1 1v11h-12v-10z" fill="#6339A4"/>
<path transform="translate(686,535)" d="m0 0h7l3 2 1 6-2 4-2 1h-7z" fill="#552A93"/>
<path transform="translate(763,535)" d="m0 0h7l3 3v7l-3 3h-7z" fill="#572B95"/>
<path transform="translate(634,47)" d="m0 0 3 2 1 11-4 4h-5l1-15z" fill="#6339A4"/>
<path transform="translate(666,141)" d="m0 0h3v2h2v2h-2v6h2l2-4h4v-2l-5 1 1-3h5l1 1v9h-12l-1-1-1-9z" fill="#522A8D"/>
<path transform="translate(556,136)" d="m0 0h2l1 5 1-1h6l2 2v3l-3-1v-2l-4 1v7l7-1-2 4h-6l-1-1-1 5h-2z" fill="#562B94"/>
<path transform="translate(646,177)" d="m0 0h10l-1 10-2 3-4-1-2-4z" fill="#6339A4"/>
<path transform="translate(616,62)" d="m0 0h1v12l-3 7-4-1v-15h2v2l2-1z" fill="#6339A4"/>
<path transform="translate(1029,363)" d="m0 0 7 1 1 1v7l-5 2-2 3h-2v-13z" fill="#582D97"/>
<path transform="translate(865,534)" d="m0 0 2 1v13h-7l-2-2v-6l2-2h4z" fill="#46257A"/>
<path transform="translate(579,92)" d="m0 0h3v19l-4 1-1-2v-15z" fill="#6339A4"/>
<path transform="translate(715,538)" d="m0 0h7v12l-7 1-1-3 6 1v-2h-5l-2-2 1-6z" fill="#49287F"/>
<path transform="translate(844,446)" d="m0 0h6l3 3-1 7-4 1-2-1v4h-2z" fill="#4A2981"/>
<path transform="translate(603,298)" d="m0 0h7l2 2v5l-1 2 1 4-4-2-3-3v5h-2z" fill="#472A7B"/>
<path transform="translate(890,443)" d="m0 0h2v13l-6 1-3-3v-6l3-2h3z" fill="#4B2C81"/>
<path transform="translate(1074,360)" d="m0 0h2v13l-6 1-3-3v-5l3-3h3z" fill="#4B2A82"/>
<path transform="translate(559,235)" d="m0 0 2 1v3h5l2 3-1 6-1 1h-7z" fill="#492A7F"/>
<path transform="translate(791,538)" d="m0 0h7l2 2v6l-2 2h-4l-1 3h-2z" fill="#442777"/>
<path transform="translate(589,47)" d="m0 0 5 1-1 11 3-1-1 4h-6l-2-5v-9z" fill="#6339A4"/>
<path transform="translate(754,535)" d="m0 0h2v13h-7l-2-3 1-6 5-1z" fill="#46277A"/>
<path transform="translate(1014,363)" d="m0 0h10l3 3v7h-3v-7h-3v7h-2v-7h-3v7h-3v-9z" fill="#552993"/>
<path transform="translate(554,363)" d="m0 0h11l2 2v8h-2l-1-6h-2l-1 6h-2v-7h-3v7h-3v-9z" fill="#572C95"/>
<path transform="translate(829,446)" d="m0 0h11l2 1v9h-2v-7h-3v7h-3v-7l-2 1-1 6h-2z" fill="#542992"/>
<path transform="translate(821,446)" d="m0 0 5 1 2 2v5l-4 3-5-2-1-5z" fill="#4A2B80"/>
<path transform="translate(1006,363)" d="m0 0 5 1 1 7-3 3-5-1-1-2v-6z" fill="#47297B"/>
<path transform="translate(597,360)" d="m0 0 4 1v2l1-2h2v2h2v3h-2v5h2v3l-4-1-1-7h-3v7h-2l-1-7v-3z" fill="#562A94"/>
<path transform="translate(608,239)" d="m0 0h5l2 3v5l-2 2h-6l-1-1v-7z" fill="#472A7C"/>
<path transform="translate(647,143)" d="m0 0 3 1 1 3 2-4h2l1 3 2-3h2l-1 7-1 3h-3l-1-3-2 3-3-1z" fill="#572C95"/>
<path transform="translate(814,538)" d="m0 0 5 1 1 1v6l-2 2h-5l-2-3 1-6z" fill="#442676"/>
<path transform="translate(783,538)" d="m0 0 6 1 1 6-2 3h-5l-2-2v-6z" fill="#432675"/>
<path transform="translate(844,538)" d="m0 0 6 1 1 5-2 4h-5l-2-2v-6z" fill="#422574"/>
<path transform="translate(973,363)" d="m0 0 5 1 1 2v7l-6 1-3-3 2-7z" fill="#572C95"/>
<path transform="translate(810,443)" d="m0 0h5l3 3v2h-3v-2l-5 1v7h5v-2h3l-2 4-5 1-4-3-1-5 2-5z" fill="#562B95"/>
<path transform="translate(582,71)" d="m0 0h1v14l-2 5h-3l-1-5v-7l3-1z" fill="#6339A4"/>
<path transform="translate(744,443)" d="m0 0 3 1 4 10v2h-3v-3h-5l-1 3h-2l3-10z" fill="#522B8D"/>
<path transform="translate(707,443)" d="m0 0 3 1 4 10v2h-3v-3h-5l-1 3h-2l3-11z" fill="#4C2686"/>
<path transform="translate(1045,363)" d="m0 0 5 1 1 5h-6v2l6-1-1 3-5 1-3-3 1-7z" fill="#562B94"/>
<path transform="translate(964,363)" d="m0 0 4 1 2 2v3h-6v2l5-1v3l-5 1-3-2v-7z" fill="#4F2789"/>
<path transform="translate(948,360)" d="m0 0h5l3 3v2l-6-2h-2v8l8-2-2 4-5 1-4-3v-8z" fill="#572B95"/>
<path transform="translate(994,360)" d="m0 0h5l3 3v2l-6-2h-2v8l8-2-2 4-5 1-4-4v-7z" fill="#572C96"/>
<path transform="translate(625,301)" d="m0 0 5 1 1 2v7h-8l-1-4 4-3h-3v-2z" fill="#50298B"/>
<path transform="translate(565,301)" d="m0 0 5 1 1 5h-6v2l6-1-1 3h-6l-2-2 1-7z" fill="#532B8F"/>
<path transform="translate(870,538)" d="m0 0h5l2 3v3l-3 1 3 1-2 2h-5l-2-2v-6z" fill="#512A8C"/>
<path transform="translate(861,446)" d="m0 0 4 1 2 2v3l-3 1h2v3l-4 1-4-2v-7z" fill="#532A8F"/>
<path transform="translate(876,446)" d="m0 0 5 1 1 5h-6v2l6-1-1 3-4 1-4-4 1-5z" fill="#502A8A"/>
<path transform="translate(782,446)" d="m0 0 5 1 1 5h-6v2l6-1-1 3-4 1-4-4 1-5z" fill="#502A8A"/>
<path transform="translate(577,143)" d="m0 0h5l2 2v4h-6v2l6-1-2 3h-5l-2-3 1-6z" fill="#532B8E"/>
<path transform="translate(602,143)" d="m0 0h5l2 3v3l-3 1 3 1-2 2h-5l-2-2v-6z" fill="#4F2988"/>
<path transform="translate(521,360)" d="m0 0h5l2 2-1 5-3 3 4 1v2h-9l3-5 2-2-1-3-4 2 1-4z" fill="#562A94"/>
<path transform="translate(588,363)" d="m0 0 5 1 1 5h-6v2l6-1-1 3-4 1-4-4 1-5z" fill="#51288C"/>
<path transform="translate(546,363)" d="m0 0 5 1 1 5h-6v2l6-1-1 3-4 1-4-4 1-5z" fill="#51288C"/>
<path transform="translate(615,301)" d="m0 0 6 1 1 5-3 1h2l-1 3h-6l-1-2v-6z" fill="#532B8F"/>
<path transform="translate(640,143)" d="m0 0h5l2 3v3l-3 1h2l-1 3h-5l-2-2v-6z" fill="#522B8D"/>
<path transform="translate(616,143)" d="m0 0h5l1 1v9h-7l-1-5 5-2h-5z" fill="#51298C"/>
<path transform="translate(834,538)" d="m0 0h5l2 5-6 2h5l-1 3h-5l-2-2v-6z" fill="#512A8B"/>
<path transform="translate(706,538)" d="m0 0 5 1 1 1v8h-7l-1-5 5-2h-5z" fill="#5B309A"/>
<path transform="translate(730,538)" d="m0 0 6 1v9h-7l-1-5 6-1v-2l-6 1z" fill="#4F2A89"/>
<path transform="translate(1061,363)" d="m0 0 5 2v4h-6v2l6-1-1 3-4 1-3-2-1-4 2-4z" fill="#50278B"/>
<path transform="translate(634,239)" d="m0 0 5 1 1 5-5 1h5l-1 3h-6l-1-1v-7z" fill="#522B8D"/>
<path transform="translate(629,143)" d="m0 0h6l2 2v8h-3v-8l-2 1-1 7h-3v-9z" fill="#542992"/>
<path transform="translate(623,235)" d="m0 0 1 4h5l1 1 1 8-3 1-1-7-2-1-1 8h-2v-13z" fill="#592E98"/>
<path transform="translate(690,139)" d="m0 0h2l1 6 2-2 3 1-2 2 1 4 1 3h-3l-2-3-1 3h-2z" fill="#552992"/>
<path transform="translate(571,363)" d="m0 0 5 2-2 2 2 2-1 4-4 1-3-2v-2h3l-3-2 1-4z" fill="#562B94"/>
<path transform="translate(587,143)" d="m0 0 5 1 1 1v8l-2-1-1-3h-3v2l3 1-4 1-1-5 5-1v-2l-5 1v-2z" fill="#592E98"/>
<path transform="translate(578,239)" d="m0 0 3 1 2 3 2-4h2l-3 10-2 3h-3v-2h2z" fill="#5A2E98"/>
<path transform="translate(643,239)" d="m0 0 6 1v2l-5-1v2l5 1-1 5h-6l-1-3h5l-5-3z" fill="#572C96"/>
<path transform="translate(754,446)" d="m0 0 5 1 1 3-6-1v5l6-1-1 3-4 1-4-3 1-7z" fill="#562A94"/>
<path transform="translate(594,239)" d="m0 0h5l2 4-5-1-1 5 5-2v3l-1 1h-5l-2-2v-6z" fill="#572C95"/>
<path transform="translate(682,143)" d="m0 0h5l1 3h-4l5 3-2 4h-5l-1-3h4l-4-2z" fill="#562B95"/>
<path transform="translate(605,31)" d="m0 0h5l1 21-2-3v-5l-3-1 1-8z" fill="#6339A4"/>
<path transform="translate(588,301)" d="m0 0h7l1 1v9h-2l-1-7-2 1-1 6h-2z" fill="#582D96"/>
<path transform="translate(569,239)" d="m0 0h2l1 7h2l1-7h2v10h-7l-1-1z" fill="#552993"/>
<path transform="translate(738,538)" d="m0 0h7l1 1v9h-2l-1-7h-2l-1 7h-2z" fill="#552A93"/>
<path transform="translate(765,537)" d="m0 0 5 1 1 1v5l-2 2h-4z" fill="#111825"/>
<path transform="translate(688,537)" d="m0 0 5 1 1 1v5l-2 2h-4z" fill="#141B29"/>
<path transform="translate(495,278)" d="m0 0h5l1 1v6l-1-3h-23v-1l15-1z" fill="#6339A4"/>
<path transform="translate(634,301)" d="m0 0 6 1v3l-4-1-1 4h5l-1 3h-6l-1-2v-6z" fill="#562B94"/>
<path transform="translate(898,538)" d="m0 0h5l1 3-5-1v2l5 1-1 5h-5l-1-3 5 1v-2l-5-1z" fill="#582D97"/>
<path transform="translate(868,444)" d="m0 0h3l2 4-2 6h2v2l-5-1-1-9z" fill="#572B95"/>
<path transform="translate(771,446)" d="m0 0 3 3 1 2 2-5h2l-2 9-4 1-3-9z" fill="#572B95"/>
<path transform="translate(1031,366)" d="m0 0 4 1 2 5-5 2-2 3-2-1 1-5h2z" fill="#3E286D"/>
<path transform="translate(642,299)" d="m0 0h3l2 4h-2v6h2v2l-5-1-1-9z" fill="#582C96"/>
<path transform="translate(616,237)" d="m0 0h3v2h2v2h-2v6h2v2h-4l-2-10z" fill="#572C95"/>
<path transform="translate(806,536)" d="m0 0h3l2 4h-2l2 8h-4l-2-10z" fill="#542891"/>
<path transform="translate(539,361)" d="m0 0h2l2 4-1 1v5 3l-3-1-2-9z" fill="#582D97"/>
<path transform="translate(906,536)" d="m0 0 4 2v10l-4-1-1-9z" fill="#572C95"/>
<path transform="translate(659,106)" d="m0 0h3l1 9h-6l1-8z" fill="#6339A4"/>
<path transform="translate(854,443)" d="m0 0h3v13h-3z" fill="#52268F"/>
<path transform="translate(1038,360)" d="m0 0h3v13h-3z" fill="#572C96"/>
<path transform="translate(957,360)" d="m0 0h3v13h-3z" fill="#572B95"/>
<path transform="translate(1053,361)" d="m0 0h2l2 5h-2v5h2l-1 3-3-1-1-7v-3z" fill="#532891"/>
<path transform="translate(1014,363)" d="m0 0h5v3h-3v7h-3v-9z" fill="#582D96"/>
<path transform="translate(981,363)" d="m0 0h5v3h-3v7h-3v-9z" fill="#572C96"/>
<path transform="translate(482,290)" d="m0 0h12v3h-13z" fill="#6339A4"/>
<path transform="translate(762,444)" d="m0 0h2l2 4-2 6h2v2h-4l-1-7v-3z" fill="#592E98"/>
<path transform="translate(579,303)" d="m0 0h1v8h-7l-1-5 6-1-3 3h4z" fill="#5A2F99"/>
<path transform="translate(582,301)" d="m0 0h5l-1 3h-2v7h-3v-9z" fill="#572C96"/>
<path transform="translate(570,143)" d="m0 0h5v2l-2 1-1 7h-3v-9z" fill="#562B94"/>
<path transform="translate(634,108)" d="m0 0 2 1v6h-7l1-5z" fill="#6339A4"/>
<path transform="translate(764,537)" d="m0 0h1v9l5-2 3-3-1 6-2 1h-7z" fill="#5A2F99"/>
<path transform="translate(666,141)" d="m0 0h3v2h2v2h-2v6h-3l-1-8z" fill="#572C96"/>
<path transform="translate(613,57)" d="m0 0h2l1 5-2 5h-2l-1-2v-6z" fill="#52268F"/>
<path transform="translate(603,298)" d="m0 0h6l-4 2v5l2 1h-2v5h-2z" fill="#592E98"/>
<path transform="translate(595,141)" d="m0 0h2v2h2v2h-2l2 8-4-1-1-9z" fill="#582D97"/>
<path transform="translate(973,363)" d="m0 0 5 1 1 3-2 1-6-1zm3 5 1 3-4-1z" fill="#46267A"/>
<path transform="translate(994,360)" d="m0 0h5l3 3v2l-6-2h-2v2l-3 1 1-4z" fill="#582D97"/>
<path transform="translate(876,446)" d="m0 0 5 1 1 5-6-1-2-1z" fill="#572C95"/>
<path transform="translate(782,446)" d="m0 0 5 1 1 5-6-1-2-1z" fill="#572C95"/>
<path transform="translate(521,360)" d="m0 0h5l2 2-1 3-2 1-2-3-4 2 1-4z" fill="#582D97"/>
<path transform="translate(628,16)" d="m0 0h5l-1 4h-2v5l-6-2 2-2h3z" fill="#6339A4"/>
<path transform="translate(630,70)" d="m0 0h6l1 4-5 1-2-2z" fill="#6339A4"/>
<path transform="translate(826,538)" d="m0 0h6v2h-3l-1 8h-2z" fill="#592E98"/>
<path transform="translate(837,446)" d="m0 0 5 1v9h-2v-7l-5-1z" fill="#582D96"/>
<path transform="translate(658,143)" d="m0 0h2l-1 7-1 3h-3l-1-4 2-1z" fill="#562A94"/>
<path transform="translate(706,538)" d="m0 0 5 1v6l-5 1v-2l3-3h-5z" fill="#452679"/>
<path transform="translate(554,363)" d="m0 0 2 2v8h-3v-9z" fill="#552A93"/>
<path transform="translate(964,363)" d="m0 0 4 1 2 2-1 3-2-1v-2h-3l-1 2h-2l1-4z" fill="#572C95"/>
<path transform="translate(1047,363)" d="m0 0 3 1 1 5h-6v-5z" fill="#4D2787"/>
<path transform="translate(878,538)" d="m0 0h5v2l-2 1-1 7h-2z" fill="#562B94"/>
<path transform="translate(852,538)" d="m0 0h5v2l-2 1-1 7h-2z" fill="#552A93"/>
<path transform="translate(775,538)" d="m0 0h5v2l-2 1-1 7h-2z" fill="#5A2F99"/>
<path transform="translate(698,538)" d="m0 0h5v2l-2 1-1 7h-2z" fill="#5A2F99"/>
<path transform="translate(623,177)" d="m0 0h7l-2 5-5-1z" fill="#6339A4"/>
<path transform="translate(602,143)" d="m0 0h5l2 3v3h-7l4-1z" fill="#592E98"/>
</svg>
